<svg xmlns="http://www.w3.org/2000/svg" xmlns:xlink="http://www.w3.org/1999/xlink" fill="none" version="1.1" width="120.08837890625" height="120.4141845703125" viewBox="0 0 120.08837890625 120.4141845703125"><g style="mix-blend-mode:passthrough" transform="matrix(0.8660253882408142,0.5,-0.5,0.8660253882408142,17.49801744087017,-10.5476286712219)"><g style="mix-blend-mode:passthrough"><path d="M60.044452343749995,27.3779296875C42.584952343750004,27.3779296875,28.43115234375,41.2595296875,28.43115234375,58.3832296875C28.43115234375,58.3832296875,28.43115234375,88.4767296875,28.43115234375,88.4767296875C28.43115234375,90.99492968749999,30.51258234375,93.0363296875,33.08016234375,93.0363296875C33.08016234375,93.0363296875,41.44835234375,93.0363296875,41.44835234375,93.0363296875C47.07035234375,93.0363296875,49.880752343750004,89.7573296875,52.49315234375,85.5924296875C56.38685234375,79.3849296875,63.70205234375,79.3849296875,67.59575234375001,85.5924296875C70.20815234375,89.7573296875,73.01855234375,93.0363296875,78.64055234375,93.0363296875C78.64055234375,93.0363296875,87.00875234374999,93.0363296875,87.00875234374999,93.0363296875C89.57635234375,93.0363296875,91.65775234374999,90.99492968749999,91.65775234374999,88.4767296875C91.65775234374999,88.4767296875,91.65775234374999,58.3832296875,91.65775234374999,58.3832296875C91.65775234374999,41.2595296875,77.50395234375,27.3779296875,60.044452343749995,27.3779296875C60.044452343749995,27.3779296875,60.044452343749995,27.3779296875,60.044452343749995,27.3779296875Z" fill="#E7D4FF" fill-opacity="1"/></g><g style="mix-blend-mode:passthrough"><ellipse cx="60.04463577270508" cy="55.34348201751709" rx="13.374856948852539" ry="12.158961296081543" fill="#FFFFFF" fill-opacity="1"/></g><g style="mix-blend-mode:passthrough"><ellipse cx="66.73193597793579" cy="54.73566293716431" rx="4.255636692047119" ry="4.255636692047119" fill="#000000" fill-opacity="0.75"/></g></g></svg>